<svg xmlns="http://www.w3.org/2000/svg" xmlns:xlink="http://www.w3.org/1999/xlink" xmlns:lucid="lucid" width="481" height="341.67"><g transform="translate(-60 -80)" lucid:page-tab-id="0_0"><path d="M80 106c0-3.3 2.7-6 6-6h148c3.3 0 6 2.7 6 6v108c0 3.3-2.7 6-6 6H86c-3.3 0-6-2.7-6-6z" stroke="#5e5e5e" stroke-width="3" fill="#fff"/><use xlink:href="#a" transform="matrix(1,0,0,1,92,112) translate(35.901234567901234 53.77777777777778)"/><path d="M340 106c0-3.3 2.7-6 6-6h148c3.3 0 6 2.7 6 6v108c0 3.3-2.7 6-6 6H346c-3.3 0-6-2.7-6-6z" stroke="#5e5e5e" stroke-width="3" fill="#fff"/><use xlink:href="#b" transform="matrix(1,0,0,1,352,112) translate(17.444444444444436 53.77777777777778)"/><path d="M279.06 161H242.5v-2h36.56zm40.94 0h-31.06v-2H320z" fill="#5e5e5e"/><path d="M242.53 161h-1.03v-2h1.03zM335.26 160L321 164.64v-9.28z" fill="#5e5e5e"/><path d="M338.5 160l-18.5 6v-12zm-16.5 3.26l10.03-3.26-10.03-3.26z" fill="#5e5e5e"/><use xlink:href="#c" transform="matrix(1,0,0,1,279.0617283950617,149.33333333333334) translate(0 14.222222222222223)"/><path d="M415.2 263.6c2.65-2 6.95-2 9.6 0l70.4 52.8c2.65 2 2.65 5.2 0 7.2l-70.4 52.8c-2.65 2-6.95 2-9.6 0l-70.4-52.8c-2.65-2-2.65-5.2 0-7.2z" stroke="#5e5e5e" stroke-width="3" fill="#fff"/><use xlink:href="#d" transform="matrix(1,0,0,1,345,265) translate(68.83216049382716 59.02777777777778)"/><path d="M420 222.5v19.67" stroke="#5e5e5e" stroke-width="2" fill="none"/><path d="M421 222.53h-2v-1.03h2z" fill="#5e5e5e"/><path d="M420 257.43l-4.64-14.26h9.28z" stroke="#5e5e5e" stroke-width="2" fill="#5e5e5e"/><path d="M276.14 321H260v-2h16.14zm64.25 0h-33.65v-2h33.64z" fill="#5e5e5e"/><path d="M341.28 319.4l.28 1.6h-1.2v-2h1.1zM259 324.64L244.74 320l14.26-4.64z" fill="#5e5e5e"/><path d="M260 326l-18.5-6 18.5-6zm-12.03-6l10.03 3.26v-6.52z" fill="#5e5e5e"/><use xlink:href="#e" transform="matrix(1,0,0,1,276.13579550489766,309.3333333333333) translate(0 14.222222222222223)"/><path d="M421 393.87l.7 2.64 1.8 1.8 2.63.7h39.4v2h-39.66l-3.42-.92-2.53-2.53-.92-3.42v-13.8h2zm106.55-73.95l2.53 2.53.92 3.42v68.26l-.92 3.42-2.53 2.53-3.42.92h-35v-2h34.74l2.64-.7 1.8-1.8.7-2.63v-67.74l-.7-2.64-1.8-1.8-2.63-.7h-6.76v-2h7.03z" fill="#5e5e5e"/><path d="M421 379.35v1h-2v-1.04zM516.1 324.64L501.86 320l14.26-4.64z" fill="#5e5e5e"/><path d="M517.1 326l-18.5-6 18.5-6zm-12.02-6l10.03 3.26v-6.52z" fill="#5e5e5e"/><use xlink:href="#f" transform="matrix(1,0,0,1,465.53086419753083,389.3333333333333) translate(0 14.222222222222223)"/><path d="M80 266c0-3.3 2.7-6 6-6h132c3.3 0 6 2.7 6 6v96c-24.05-17.03-39.02-17.03-48.1-17.03-14.4 0-33.55 17.03-47.95 17.03-8.93 0-24.05 0-47.95-17.03z" stroke="#5e5e5e" stroke-width="3" fill="#fff"/><path d="M88 275c0-3.3 2.7-6 6-6h132c3.3 0 6 2.7 6 6v96c-24.05-17.03-39.02-17.03-48.1-17.03-14.4 0-33.55 17.03-47.95 17.03-8.93 0-24.05 0-47.95-17.03z" stroke="#5e5e5e" stroke-width="3" fill="#fff"/><path d="M96 284c0-3.3 2.7-6 6-6h132c3.3 0 6 2.7 6 6v96c-24.05-17.03-39.02-17.03-48.1-17.03-14.4 0-33.55 17.03-47.95 17.03-8.93 0-24.05 0-47.95-17.03z" stroke="#5e5e5e" stroke-width="3" fill="#fff"/><use xlink:href="#g" transform="matrix(1,0,0,1,101,283) translate(9.648148148148145 17.77777777777778)"/><use xlink:href="#h" transform="matrix(1,0,0,1,101,283) translate(71.37654320987654 17.77777777777778)"/><use xlink:href="#i" transform="matrix(1,0,0,1,101,283) translate(18.290123456790127 44.44444444444444)"/><use xlink:href="#j" transform="matrix(1,0,0,1,101,283) translate(42.98148148148148 44.44444444444444)"/><path d="M160 257.5V240" stroke="#5e5e5e" stroke-width="2" fill="none"/><path d="M161 258.5h-2v-1.03h2z" fill="#5e5e5e"/><path d="M160 224.74l4.64 14.26h-9.28z" stroke="#5e5e5e" stroke-width="2" fill="#5e5e5e"/><defs><path fill="#333" d="M30-248c87 1 191-15 191 75 0 78-77 80-158 76V0H30v-248zm33 125c57 0 124 11 124-50 0-59-68-47-124-48v98" id="k"/><path fill="#333" d="M106-169C34-169 62-67 57 0H25v-261h32l-1 103c12-21 28-36 61-36 89 0 53 116 60 194h-32v-121c2-32-8-49-39-48" id="l"/><path fill="#333" d="M100-194c62-1 85 37 85 99 1 63-27 99-86 99S16-35 15-95c0-66 28-99 85-99zM99-20c44 1 53-31 53-75 0-43-8-75-51-75s-53 32-53 75 10 74 51 75" id="m"/><path fill="#333" d="M117-194c89-4 53 116 60 194h-32v-121c0-31-8-49-39-48C34-167 62-67 57 0H25l-1-190h30c1 10-1 24 2 32 11-22 29-35 61-36" id="n"/><path fill="#333" d="M100-194c63 0 86 42 84 106H49c0 40 14 67 53 68 26 1 43-12 49-29l28 8c-11 28-37 45-77 45C44 4 14-33 15-96c1-61 26-98 85-98zm52 81c6-60-76-77-97-28-3 7-6 17-6 28h103" id="o"/><g id="a"><use transform="matrix(0.06172839506172839,0,0,0.06172839506172839,0,0)" xlink:href="#k"/><use transform="matrix(0.06172839506172839,0,0,0.06172839506172839,14.814814814814813,0)" xlink:href="#l"/><use transform="matrix(0.06172839506172839,0,0,0.06172839506172839,27.160493827160494,0)" xlink:href="#m"/><use transform="matrix(0.06172839506172839,0,0,0.06172839506172839,39.50617283950617,0)" xlink:href="#n"/><use transform="matrix(0.06172839506172839,0,0,0.06172839506172839,51.85185185185185,0)" xlink:href="#o"/></g><path fill="#333" d="M24 0v-261h32V0H24" id="p"/><path fill="#333" d="M24-231v-30h32v30H24zM24 0v-190h32V0H24" id="q"/><path fill="#333" d="M177-190C167-65 218 103 67 71c-23-6-38-20-44-43l32-5c15 47 100 32 89-28v-30C133-14 115 1 83 1 29 1 15-40 15-95c0-56 16-97 71-98 29-1 48 16 59 35 1-10 0-23 2-32h30zM94-22c36 0 50-32 50-73 0-42-14-75-50-75-39 0-46 34-46 75s6 73 46 73" id="r"/><path fill="#333" d="M59-47c-2 24 18 29 38 22v24C64 9 27 4 27-40v-127H5v-23h24l9-43h21v43h35v23H59v120" id="s"/><path fill="#333" d="M84 4C-5 8 30-112 23-190h32v120c0 31 7 50 39 49 72-2 45-101 50-169h31l1 190h-30c-1-10 1-25-2-33-11 22-28 36-60 37" id="t"/><path fill="#333" d="M135-143c-3-34-86-38-87 0 15 53 115 12 119 90S17 21 10-45l28-5c4 36 97 45 98 0-10-56-113-15-118-90-4-57 82-63 122-42 12 7 21 19 24 35" id="u"/><g id="b"><use transform="matrix(0.06172839506172839,0,0,0.06172839506172839,0,0)" xlink:href="#p"/><use transform="matrix(0.06172839506172839,0,0,0.06172839506172839,4.876543209876543,0)" xlink:href="#q"/><use transform="matrix(0.06172839506172839,0,0,0.06172839506172839,9.753086419753085,0)" xlink:href="#r"/><use transform="matrix(0.06172839506172839,0,0,0.06172839506172839,22.098765432098766,0)" xlink:href="#l"/><use transform="matrix(0.06172839506172839,0,0,0.06172839506172839,34.44444444444444,0)" xlink:href="#s"/><use transform="matrix(0.06172839506172839,0,0,0.06172839506172839,40.617283950617285,0)" xlink:href="#l"/><use transform="matrix(0.06172839506172839,0,0,0.06172839506172839,52.96296296296296,0)" xlink:href="#m"/><use transform="matrix(0.06172839506172839,0,0,0.06172839506172839,65.30864197530865,0)" xlink:href="#t"/><use transform="matrix(0.06172839506172839,0,0,0.06172839506172839,77.65432098765433,0)" xlink:href="#u"/><use transform="matrix(0.06172839506172839,0,0,0.06172839506172839,88.76543209876544,0)" xlink:href="#o"/></g><path fill="#333" d="M23 0v-37h61v-169l-59 37v-38l62-41h46v211h57V0H23" id="v"/><use transform="matrix(0.04938271604938272,0,0,0.04938271604938272,0,0)" xlink:href="#v" id="c"/><path fill="#333" d="M101-251c82-7 93 87 43 132L82-64C71-53 59-42 53-27h129V0H18c2-99 128-94 128-182 0-28-16-43-45-43s-46 15-49 41l-32-3c6-41 34-60 81-64" id="w"/><use transform="matrix(0.06172839506172839,0,0,0.06172839506172839,0,0)" xlink:href="#w" id="d"/><path fill="#333" d="M146-102V0H94v-102L6-248h54l60 105 60-105h54" id="x"/><path fill="#333" d="M185-48c-13 30-37 53-82 52C43 2 14-33 14-96s30-98 90-98c62 0 83 45 84 108H66c0 31 8 55 39 56 18 0 30-7 34-22zm-45-69c5-46-57-63-70-21-2 6-4 13-4 21h74" id="y"/><path fill="#333" d="M137-138c1-29-70-34-71-4 15 46 118 7 119 86 1 83-164 76-172 9l43-7c4 19 20 25 44 25 33 8 57-30 24-41C81-84 22-81 20-136c-2-80 154-74 161-7" id="z"/><g id="e"><use transform="matrix(0.04938271604938272,0,0,0.04938271604938272,0,0)" xlink:href="#x"/><use transform="matrix(0.04938271604938272,0,0,0.04938271604938272,10.864197530864198,0)" xlink:href="#y"/><use transform="matrix(0.04938271604938272,0,0,0.04938271604938272,20.74074074074074,0)" xlink:href="#z"/></g><path fill="#333" d="M175 0L67-191c6 58 2 128 3 191H24v-248h59L193-55c-6-58-2-129-3-193h46V0h-61" id="A"/><path fill="#333" d="M110-194c64 0 96 36 96 99 0 64-35 99-97 99-61 0-95-36-95-99 0-62 34-99 96-99zm-1 164c35 0 45-28 45-65 0-40-10-65-43-65-34 0-45 26-45 65 0 36 10 65 43 65" id="B"/><g id="f"><use transform="matrix(0.04938271604938272,0,0,0.04938271604938272,0,0)" xlink:href="#A"/><use transform="matrix(0.04938271604938272,0,0,0.04938271604938272,12.790123456790125,0)" xlink:href="#B"/></g><path fill="#333" d="M160-131c35 5 61 23 61 61C221 17 115-2 30 0v-248c76 3 177-17 177 60 0 33-19 50-47 57zm-97-11c50-1 110 9 110-42 0-47-63-36-110-37v79zm0 115c55-2 124 14 124-45 0-56-70-42-124-44v89" id="C"/><path fill="#333" d="M179-190L93 31C79 59 56 82 12 73V49c39 6 53-20 64-50L1-190h34L92-34l54-156h33" id="D"/><g id="g"><use transform="matrix(0.06172839506172839,0,0,0.06172839506172839,0,0)" xlink:href="#C"/><use transform="matrix(0.06172839506172839,0,0,0.06172839506172839,14.814814814814813,0)" xlink:href="#D"/><use transform="matrix(0.06172839506172839,0,0,0.06172839506172839,25.925925925925924,0)" xlink:href="#s"/><use transform="matrix(0.06172839506172839,0,0,0.06172839506172839,32.098765432098766,0)" xlink:href="#o"/><use transform="matrix(0.06172839506172839,0,0,0.06172839506172839,44.44444444444444,0)" xlink:href="#u"/></g><g id="h"><use transform="matrix(0.06172839506172839,0,0,0.06172839506172839,0,0)" xlink:href="#u"/><use transform="matrix(0.06172839506172839,0,0,0.06172839506172839,11.11111111111111,0)" xlink:href="#o"/><use transform="matrix(0.06172839506172839,0,0,0.06172839506172839,23.45679012345679,0)" xlink:href="#n"/><use transform="matrix(0.06172839506172839,0,0,0.06172839506172839,35.80246913580247,0)" xlink:href="#s"/></g><g id="i"><use transform="matrix(0.06172839506172839,0,0,0.06172839506172839,0,0)" xlink:href="#s"/><use transform="matrix(0.06172839506172839,0,0,0.06172839506172839,6.172839506172839,0)" xlink:href="#m"/></g><path fill="#333" d="M115-194c55 1 70 41 70 98S169 2 115 4C84 4 66-9 55-30l1 105H24l-1-265h31l2 30c10-21 28-34 59-34zm-8 174c40 0 45-34 45-75s-6-73-45-74c-42 0-51 32-51 76 0 43 10 73 51 73" id="E"/><g id="j"><use transform="matrix(0.06172839506172839,0,0,0.06172839506172839,0,0)" xlink:href="#E"/><use transform="matrix(0.06172839506172839,0,0,0.06172839506172839,12.345679012345679,0)" xlink:href="#l"/><use transform="matrix(0.06172839506172839,0,0,0.06172839506172839,24.691358024691358,0)" xlink:href="#m"/><use transform="matrix(0.06172839506172839,0,0,0.06172839506172839,37.03703703703704,0)" xlink:href="#n"/><use transform="matrix(0.06172839506172839,0,0,0.06172839506172839,49.382716049382715,0)" xlink:href="#o"/></g></defs></g></svg>